<svg width="28" height="28" viewBox="0 0 28 28" fill="none" xmlns="http://www.w3.org/2000/svg">
<rect width="28" height="28" rx="14" fill="white"/>
<path d="M8.68604 17H19.3146M8.51465 15H19.4861M9.74316 9H18.2571M9.74316 9C9.13829 9 8.8358 9 8.61279 9.12093C8.41686 9.22718 8.26205 9.3963 8.17292 9.60059C8.07151 9.83303 8.0973 10.1341 8.14893 10.7363L8.94921 20.073C9.0377 21.1053 9.08203 21.6225 9.31149 22.0132C9.51358 22.3572 9.81426 22.6327 10.1743 22.8047C10.5832 23 11.1013 23 12.1377 23H15.8628C16.8992 23 17.4174 23 17.8263 22.8047C18.1864 22.6327 18.4869 22.3572 18.689 22.0132C18.9185 21.6225 18.9628 21.1056 19.0513 20.073L19.8517 10.7347C19.9033 10.1331 19.929 9.8329 19.8276 9.60059C19.7385 9.3963 19.5838 9.22718 19.3878 9.12093C19.1648 9 18.862 9 18.2571 9M9.74316 9H8.7499C7.85031 9 7.40023 9 7.13867 8.81152C6.90778 8.64515 6.75884 8.38816 6.72894 8.10515C6.69504 7.78431 6.91871 7.3929 7.36568 6.6107L7.36621 6.60977C7.70039 6.02496 7.86748 5.73255 8.10197 5.51953C8.31161 5.32909 8.55925 5.18544 8.82861 5.09791C9.12991 5 9.46658 5 10.1401 5H17.8604C18.5339 5 18.8707 5 19.172 5.09791C19.4413 5.18544 19.6888 5.32909 19.8984 5.51953C20.1329 5.73255 20.3 6.02496 20.6342 6.60977C21.0813 7.39224 21.3053 7.78425 21.2714 8.10515C21.2415 8.38816 21.0925 8.64515 20.8616 8.81152C20.6001 9 20.1497 9 19.2501 9H18.2571" stroke="black" stroke-width="2" stroke-linecap="round" stroke-linejoin="round"/>
</svg>
